<!-- Generated by IcoMoon.io -->
<svg version="1.1" xmlns="http://www.w3.org/2000/svg" width="512" height="512" viewBox="0 0 512 512">
<defs>
    <linearGradient id="g" x1="0%" y1="0%" x2="100%" y2="0%">
      <stop offset="0%" stop-color="#4F46E5"/> 
      <stop offset="100%" stop-color="#9333EA"/>
    </linearGradient>
    <filter id="f">
      <feGaussianBlur stdDeviation="4.5" result="coloredBlur"/>
      <feMerge>
        <feMergeNode in="coloredBlur"/>
        <feMergeNode in="SourceGraphic"/>
      </feMerge>
    </filter>
  </defs>
<path d="M0.001 183.782c0-121.678 70.081-183.78 200.928-183.78v0h274.516l-119.313 119.197h-139.447c-54.208 0-88.703 14.365-96.447 62.559v0c-3.291 16.835-2.139 51.875-2.139 74.153v0h82.798c0.755 0 2.103 0.104 2.793 0.297v0c3.352 0.935 5.808 3.965 5.815 7.558v0c0.003 2.031-1.051 3.934-2.985 5.895v0l-206.487 206.56-0.031-292.435zM155.874 392.805h139.444c54.207 0 88.707-14.368 96.447-62.558v0c3.291-16.835 2.139-51.877 2.139-74.154v0h-82.796c-0.75 0-2.102-0.103-2.791-0.297v0c-3.355-0.931-5.811-3.961-5.815-7.555v0c-0.003-2.032 1.056-3.933 2.983-5.895v0l206.482-206.561 0.033 292.435c0 121.677-70.082 183.781-200.925 183.781v0h-274.513l119.313-119.197z" fill="url(#g)" filter="url(#f)"></path>
</svg>
